<svg xmlns="http://www.w3.org/2000/svg" viewBox="0 0 1440 320"><path fill="#fff" fill-opacity="1" d="M0,64L26.7,58.7C53.3,53,107,43,160,74.7C213.3,107,267,181,320,213.3C373.3,245,427,235,480,245.3C533.3,256,587,288,640,256C693.3,224,747,128,800,106.7C853.3,85,907,139,960,170.7C1013.3,203,1067,213,1120,224C1173.3,235,1227,245,1280,261.3C1333.3,277,1387,299,1413,309.3L1440,320L1440,0L1413.3,0C1386.7,0,1333,0,1280,0C1226.7,0,1173,0,1120,0C1066.7,0,1013,0,960,0C906.7,0,853,0,800,0C746.7,0,693,0,640,0C586.7,0,533,0,480,0C426.7,0,373,0,320,0C266.7,0,213,0,160,0C106.7,0,53,0,27,0L0,0Z"></path></svg>